<svg width="14" height="14" viewBox="0 0 14 14" fill="none" xmlns="http://www.w3.org/2000/svg">
<g clip-path="url(#clip0)">
<path d="M0.563742 14.0008C0.416373 14.0008 0.277674 13.9487 0.16498 13.836C-0.0517382 13.6191 -0.0517382 13.2548 0.16498 13.0379L13.038 0.165569C13.2548 -0.0512834 13.6188 -0.0512834 13.8356 0.165569C14.0523 0.382422 14.0523 0.746734 13.8356 0.963587L0.962503 13.836C0.84981 13.9487 0.71111 14.0008 0.563742 14.0008Z" fill="#9D9D9D"/>
<path d="M13.4368 14.0008C13.2894 14.0008 13.1507 13.9487 13.038 13.836L0.16498 0.963587C-0.0517382 0.746734 -0.0517382 0.382422 0.16498 0.165569C0.381698 -0.0512834 0.745785 -0.0512834 0.962503 0.165569L13.8356 13.0379C14.0523 13.2548 14.0523 13.6191 13.8356 13.836C13.7229 13.9487 13.5755 14.0008 13.4368 14.0008Z" fill="#9D9D9D"/>
</g>
<defs>
<clipPath id="clip0">
<rect width="14" height="14" fill="white"/>
</clipPath>
</defs>
</svg>
